<?xml version="1.0" encoding="UTF-8"?>
<svg id="Layer_1" data-name="Layer 1" xmlns="http://www.w3.org/2000/svg" xmlns:xlink="http://www.w3.org/1999/xlink" viewBox="0 0 347.13 153.62">
  <defs>
    <style>
      .cls-1 {
        clip-path: url(#clippath);
      }

      .cls-2 {
        fill: none;
      }

      .cls-2, .cls-3, .cls-4, .cls-5 {
        stroke-width: 0px;
      }

      .cls-3 {
        fill: #282526;
      }

      .cls-4 {
        fill: #d62c27;
      }

      .cls-5 {
        fill: #fdfdfd;
      }
    </style>
    <clipPath id="clippath">
      <ellipse class="cls-2" cx="63.6" cy="97.1" rx="35.95" ry="38.95"/>
    </clipPath>
  </defs>
  <path class="cls-3" d="M63.4,153.62c-3.27,0-6.54-.32-9.73-.94-4.21-.82-8.57-1.21-13.72-1.21h-.37c-5.24.02-10.48.03-15.71.03H3.57c-.3,0-.6.02-.91.04l-.54.04s-.08,0-.12,0c-.51,0-1-.19-1.37-.54-.4-.38-.63-.9-.63-1.46V17.34C0,7.8,7.76.04,17.3.04h2.51c9.46,0,18.91,0,28.37-.04.76,0,1.82.09,2.61.9.88.89.85,2.08.85,2.64-.05,3.04-.04,6.13-.03,9.13v3.44s0,6.09,0,6.09c0,6.5,0,12.99-.02,19.49,3.69-.81,7.48-1.21,11.3-1.21,1.49,0,3.01.06,4.52.18,11.8.95,22.32,5.45,31.26,13.37,2.91,2.58,5.52,5.54,7.94,9,5.13-6.92,11.66-12.51,18.97-16.21,8.31-4.21,17.27-6.35,26.62-6.35,2.67,0,5.42.17,8.17.52,12.16,1.52,22.59,6.23,30.99,13.99.36.33.64.69.89,1.01.06.07.13.16.19.24.21-.14.47-.33.65-.47.26-.2.52-.39.77-.56,13.26-8.84,27.58-13.75,42.56-14.61,1.52-.09,3.04-.13,4.52-.13,9.15,0,17.31,1.62,24.95,4.97,1.63.71,3.23,1.55,5.06,2.65,0-1.54,0-3.02-.03-4.51,0-.37-.03-1.5.79-2.33.81-.83,1.88-.83,2.23-.83h.16c.58.02,1.16.02,1.74.02h2.68c.5-.01,1,0,1.5,0-.02-3.61-.02-7.23-.02-10.84,0-4.54,0-9.07-.03-13.61,0-.58-.01-1.8.88-2.7.79-.8,1.82-.9,2.63-.9,7.66.03,14.51.04,21.36.04s13.52-.01,21.04-.03h.03c.85,0,2.13.01,3.07.95.6.6.89,1.42.89,2.44-.85,15.82,1.43,21.72,3.49,23.9.92.97,2,1.42,3.41,1.42.98,0,1.96-.21,2.83-.4.72-.16,1.34-.29,1.94-.3h.15c.42,0,1.52,0,2.34.83.75.76.84,1.73.84,2.4-.03,11.16-.11,20.45-.23,27.62-.09,5.12-.2,9.13-.33,11.93-.23,4.81-.32,6.81-2.54,6.81-1.07-.02-2.09-.02-3.11-.02h-3.3c-.88,0-1.75,0-2.63,0,.94,1.89,4.51,5.24,6.77,7.36,4.97,4.65,7.76,7.42,7.26,10.19-2.33,12.88-2.28,25.63.14,37.89.26,1.33.47,2.85-.36,3.99-.75,1.03-1.91,1.16-2.4,1.22l-1,.11c-1.85.21-3.77.43-5.63.69-5.2.74-9.5,1.08-13.52,1.08-3.2,0-6.16-.21-9.05-.66-9.27-1.42-16.67-4.79-22.6-10.29-.61-.57-1.19-1.16-1.74-1.76,0,2.76,0,5.42.05,8.08.02.76-.05,1.87-.88,2.71-.91.93-2.16.93-2.76.93-7.15-.02-14.27-.03-21.38-.03-5.57,0-19.38,0-19.38,0-.53,0-1.07,0-1.43.1-4.58,1.33-9.29,2-13.99,2-2.54,0-5.14-.2-7.71-.59-4.41-.66-10.74-2.32-16.87-3.93-7.82-2.05-15.91-4.17-19.69-4.17-.86,0-1.13.12-1.15.12-9.62,5.65-20.39,8.52-32,8.52-1.69,0-3.42-.06-5.15-.18-11.6-.8-22.17-4.8-31.4-11.87-2.58-1.97-5.94-5.26-8.65-7.91-.68-.67-1.41-1.38-2.02-1.96-9.78,13.61-25.96,21.97-42.77,21.97ZM152.98,56.57c-2.77,0-5.64.26-8.51.78-11.39,2.04-20.18,7.77-26.1,17.04-5,7.82-7.1,16.77-6.23,26.62,1.18,13.44,7.29,23.58,18.15,30.14,7.12,4.31,14.73,6.49,22.6,6.49,6.38,0,13.11-1.43,19.99-4.26,7.95-3.27,13.87-9.01,18.05-17.53-.9-.09-1.8-.19-2.68-.29-.69-.08-1.38-.16-2.07-.23-5.16-.53-10.32-1.05-15.49-1.57-3.86,5.27-9.63,8-17.15,8.12h-.39c-10.21,0-18.21-6.41-20.4-16.34-.48-2.16,1.76-3.11,4.58-4.32,2.75-1.17,7.38-2.98,15.06-5.97,8.14-3.17,20.29-7.9,37.23-14.62-3.75-9.09-9.42-15.46-17.28-19.44-6.06-3.07-12.58-4.63-19.36-4.63ZM232.16,91.3c-3.11,0-6.77.13-10.39.95-7.33,1.66-16.41,6.19-18.01,18.32-1.33,10.02,3.26,19.01,11.97,23.48,4.47,2.29,9.34,3.45,14.48,3.45h0c2.28,0,4.67-.23,7.1-.68,6.52-1.21,10.91-3.73,14.24-8.17.38-.51.98-.8,1.6-.8.21,0,.42.03.63.1.82.27,1.37,1.04,1.37,1.9,0,.7,0,1.36.01,2,.01,1.21.02,2.36-.01,3.51,3.21-.03,6.4-.04,9.59-.04s6.49.01,9.74.03c-.03-11.28-.03-22.56-.03-33.84v-16.53c0-3.8-.35-6.63-1.13-9.18-2.52-8.31-8.14-13.82-17.21-16.84-4.76-1.59-9.74-2.36-15.21-2.36-2.42,0-4.97.16-7.57.47-8.69,1.04-17.08,3.79-24.96,8.18,2.4,4.47,4.85,9.11,7.3,13.8,3.38-1.8,6.89-3.15,9.92-4.24,4.9-1.76,9.44-2.62,13.88-2.62,1.66,0,3.33.12,4.96.37,6.82,1.03,10.72,5.24,10.72,11.57,0,4.57-2.27,6.95-6.73,7.08-3.59.1-7.26.11-10.41.11h-3.27s-2.58,0-2.58,0ZM37.42,125.28c.61,0,1.21.28,1.59.79l.63.84c.35.47.63.85.93,1.21.37.44.87,1.01,1.4,1.51,5.14,4.82,11.41,7.42,18.63,7.72.71.03,1.41.04,2.1.04,13.22,0,23.66-5.45,31.03-16.21,6.54-9.55,8.59-20.83,6.08-33.55-3.63-18.4-18.14-30.86-36.11-31h-.37c-7.22,0-13.16,1.66-18.16,5.07-2.64,1.8-4.68,3.81-6.22,6.12-.38.57-1.01.89-1.67.89-.19,0-.39-.03-.58-.09-.84-.25-1.42-1.03-1.42-1.91v-2.02c-.01-1.43-.02-2.82,0-4.21.16-9.01.15-18.18.13-27.05-.01-5.69-.02-11.56.02-17.36-3.3.02-6.58.04-9.85.04s-6.33-.01-9.49-.05c.03,24.13.03,48.25.03,72.38v20.64c0,8.75,0,17.5-.02,26.25,3.19-.02,6.36-.04,9.53-.04s6.53.01,9.8.03c-.03-1.74-.03-3.5-.02-5.35,0-.88,0-1.78,0-2.71,0-.86.55-1.62,1.36-1.9.21-.07.43-.1.64-.1ZM292.69,73.88c.36,0,1.45,0,2.27.83.76.76.84,1.75.83,2.43-.04,4.15-.03,8.37-.03,12.45v7.52c.01,2.41.02,4.83,0,7.24-.03,4.3,0,8.49.85,12.55,1.82,8.76,6.34,14.4,13.82,17.24,4.07,1.54,8.47,2.3,13.47,2.3h0c2.2,0,4.51-.14,7.04-.44v-3.26c0-4.54,0-9.08,0-13.62-.5,0-1-.04-1.5-.08-.25-.02-.49-.04-.73-.06-7.91-.44-12.29-4.99-12.32-12.82-.02-5.21-.02-10.41-.02-15.62,0-4.49,0-8.97-.01-13.46,0-.42,0-1.54.82-2.37.82-.82,1.91-.82,2.27-.82.01,0,.1,0,.11,0,1.22.02,2.43.03,3.65.03h3.13c.78,0,1.56,0,2.34,0-.03-5.77-.03-11.57,0-17.29-.6,0-1.19,0-1.79,0h-3.49c-1.23,0-2.45,0-3.68.03h-.16c-.38,0-1.52,0-2.36-.85-.86-.86-.85-2.03-.85-2.53.02-4.04.02-8.07.02-12.11,0-4.19,0-8.37.03-12.55-3.44.02-6.86.04-10.27.04s-6.7-.01-10.05-.04c.02,4.13.03,8.26.03,12.38,0,4.1,0,8.21.03,12.31,0,.77-.09,1.75-.85,2.51-.84.84-1.94.84-2.31.84-.09,0-.17,0-.27,0-.78-.03-1.55-.04-2.33-.04,0,0-3.11.01-3.26.01.03,5.71.03,11.5,0,17.28.18,0,3.14,0,3.14,0,.73,0,1.46,0,2.19-.03h.24Z"/>
  <path class="cls-5" d="M37.42,127.28c0,3.22-.05,6.03.03,8.83.03,1.04-.31,1.24-1.28,1.23-6.89-.04-13.77-.05-20.66,0-1.15,0-1.41-.32-1.4-1.43.04-11.41.03-22.82.03-34.24,0-28.65,0-57.3-.03-85.95,0-1.26.25-1.68,1.61-1.66,6.79.08,13.58.06,20.37.01,1.05,0,1.37.23,1.36,1.33-.11,15.04.12,30.08-.15,45.12-.04,2.02,0,4.05,0,6.19,1.8-2.71,4.1-4.86,6.75-6.67,5.94-4.06,12.59-5.47,19.68-5.41,17.45.13,33.99,11.99,38.05,32.62,2.45,12.44.91,24.41-6.39,35.07-8.33,12.16-20.19,17.64-34.86,17.03-7.62-.32-14.32-3.01-19.92-8.26-.56-.52-1.07-1.1-1.56-1.68-.49-.58-.92-1.2-1.63-2.13Z"/>
  <path class="cls-5" d="M253.15,129.84c-4.08,5.45-9.46,7.82-15.47,8.94-7.92,1.47-15.62.75-22.86-2.96-9.58-4.91-14.45-14.86-13.04-25.52,1.54-11.63,9.59-17.74,19.55-20,3.56-.81,7.18-.99,10.82-1,5.4-.02,10.8.04,16.2-.11,3.43-.1,4.79-1.7,4.79-5.08,0-5.32-3.19-8.71-9.02-9.59-6.15-.93-12.08.07-17.86,2.16-3.59,1.29-7.13,2.7-10.46,4.57-.8.45-1.09.29-1.48-.46-2.68-5.15-5.4-10.29-8.15-15.4-.38-.7-.33-1.01.38-1.42,8.25-4.73,17.09-7.76,26.53-8.89,8-.96,15.94-.59,23.65,1.98,9.11,3.04,15.64,8.75,18.49,18.16.96,3.18,1.21,6.46,1.21,9.76.01,16.99,0,33.99.03,50.98,0,1.16-.35,1.4-1.44,1.39-6.84-.05-13.67-.05-20.51,0-1.16,0-1.45-.32-1.4-1.43.09-1.89.02-3.78.02-6.08Z"/>
  <path class="cls-5" d="M293.77,93.88c0-5.59-.03-11.17.03-16.76,0-1.02-.29-1.28-1.27-1.24-2.1.08-4.21,0-6.31.04-.75.01-1.1-.1-1.1-.99.04-6.44.04-12.89,0-19.33,0-.89.34-.99,1.09-.98,2.2.04,4.4-.05,6.6.04,1.08.04,1.35-.26,1.35-1.34-.05-8.4,0-16.8-.06-25.21,0-1.16.24-1.51,1.46-1.5,7.17.06,14.34.05,21.51,0,1.06,0,1.36.23,1.35,1.33-.05,8.45,0,16.9-.05,25.35,0,1.04.21,1.4,1.32,1.37,3.3-.08,6.6,0,9.89-.05.89-.01,1.13.27,1.12,1.14-.03,6.35-.03,12.7,0,19.05,0,.88-.25,1.14-1.13,1.12-3.35-.05-6.69.02-10.04-.04-.95-.02-1.17.27-1.17,1.19.03,9.69-.01,19.38.03,29.07.03,6.82,3.58,10.46,10.43,10.83,1.09.06,2.19.26,3.29.03.63-.13.84.08.84.73-.02,6.4-.01,12.79,0,19.19,0,.44.02.83-.61.92-7.67,1-15.27.95-22.61-1.83-8.64-3.28-13.24-9.9-15.07-18.7-.89-4.28-.93-8.62-.89-12.97.03-3.48,0-6.97,0-10.45Z"/>
  <g class="cls-1">
    <g>
      <path class="cls-4" d="M39.96,93.51c-.75,4.09-1.4,8.19-1.57,12.44.36-.3.65-.55,1.01-.86.66,2.05,1.32,3.99,1.49,6.07.09,1.05-.16,1.88-1.11,2.46-.43.26-.8.63-1.18.97-1.86,1.62-2.07,2.51-1.12,4.77.52,1.23,1.03,2.46,1.39,3.74.14.5.27,1.03,0,1.49-.59,1.04-.54,2.16-.35,3.24.75,4.41,2.37,8.5,4.61,12.36.08.15.11.4.4.35-1.11-15.68-2.23-31.35-3.34-47.02l-.23-.03Z"/>
      <path class="cls-4" d="M37.21,103.12c.26-2.68.5-5.36.76-8.24-1.67,1.52-3.17,2.89-4.68,4.26-.21.19-.32.37-.28.66.29,2.15.57,4.3.88,6.63,1.13-1.03,2.13-1.94,3.12-2.86.11-.1.18-.29.2-.45Z"/>
      <path class="cls-4" d="M28.69,102.71c-.26.3-.58.73-.39,1.06.29.51,0,.74-.26,1.01-.91.93-1.84,1.85-2.77,2.76-.22.22-.47.38-.44.77.09,1.06.15,2.12.22,3.17.11,0,.15.02.17,0,1.99-1.43,3.45-3.43,5.34-4.98.09-.07.09-.26.11-.39.28-1.99.55-3.98.86-6.18-1.11.98-2.02,1.84-2.83,2.78Z"/>
      <path class="cls-4" d="M102.04,99.91c-1.53-1.75-2.93-3.64-4.58-5.26-1.44-1.41-2.56-2.82-2.41-4.96.05-.74-.47-1.29-1.21-1.46-2.57-.58-4.74-1.98-6.93-3.34-1.85-1.15-3.19-2.79-4.44-4.52-.43-.59-.62-1.28-.67-1.99-.08-1.07-.13-2.15-.21-3.23-.11-1.48-.09-2.97-.12-4.45-3.4-.42-7.52-.52-12.49-.05,0,0-1.38-.07-1.07-.68,0,0,5.45-2.01,13.51-.62-.03-.51-.07-1.02-.13-1.53-4.18-1.48-10.59-2.67-20.08-1.77,0,0-1.38-.07-1.07-.68,0,0,9.03-3.34,21.02,1.55-.09-.53-.22-1.05-.37-1.58-1.94-.88-9.61-5.5-26.93-1.41,0,0-1.37.12-1.15-.53,0,0,11.64-6.2,27.78,1.06-.02-.05-.04-.1-.06-.15-.06-.15-.06-.33-.07-.5-.02-.28-.09-.6.19-.78.34-.22.57.07.82.23.09.06.18.12.3.2-.14-1.46-.13-2.88-.02-4.28.18-2.26-.66-3.69-2.87-4.34-.91-.27-32.6-2.39-33.8,12.92-.08,1.06,1.28,1.33,1.06,2.37-.2.94-.4,1.88-.59,2.83-.4,1.96-.52,3.85,1.23,5.31.29.24.1.51.04.78-.44,1.79-.86,3.58-1.3,5.37-.24.98-.26,1.9.73,2.54-.85.83-1.62,1.61-2.91,1-.3-.14-.73-.01-1.09-.01-.77,0-.95.38-.89,1.13.52,6.73,1,13.47,1.48,20.2.71,10.05,1.41,20.1,2.11,30.14.1,1.36.24,2.71.29,4.07.03.68.56.69.94.75.46.07.26-.4.28-.63.2-1.8.36-3.61.54-5.42.61-6.07,1.23-12.13,1.84-18.2.24-2.32.47-4.64.71-6.96l.19-.03c1.7,6.35,3.4,12.69,5.1,19.04.05,0,.1,0,.15,0,.71-6.08,1.42-12.16,2.15-18.36-.78.32-1.42.54-2.02.85-.66.34-1.07.06-1.43-.45-.22-.31-.27-.67-.31-1.05-.19-2.01-.14-4.03.02-6.04.09-1.11-.04-2.15-.6-3.11-.22-.37-.33-.89.05-1.01,2.52-.78,1.2-5.53,1.6-7.07.47.4,1.15,3.57,1.54,3.97,1.3,1.34,2.59,1.52,4.28.51,2.2-1.32,4.59-2.35,6.88-3.52.6-.31.99-.18,1.33.39.48.81.86,1.66,1.26,2.5.29.6.19,1.01-.31,1.47-1.65,1.51-3.3,3.04-4.72,4.78-.78.95-1.43,1.96-1.69,3.2-.21.99-.68,1.89-1.59,2.43-.48.29-.52.6-.44,1.11.84,5.66,1.65,11.33,2.48,17,.72,4.94,1.44,9.88,2.17,14.81.03.22-.09.63.25.62.39-.01.25-.44.27-.69.1-.96.16-1.92.25-2.88.61-6.72,1.22-13.45,1.83-20.17.18-2.02.37-4.03.55-6.05.05,0,.1-.02.16-.03,1.81,5.61,3.62,11.22,5.43,16.83.05,0,.11-.02.16-.03,1.44-12.3,2.87-24.6,4.31-36.9.05,0,.1-.01.15-.02,1.12,8.44,2.25,16.88,3.37,25.32.04,0,.09,0,.13,0,1.25-5.21,2.5-10.42,3.75-15.63.05.01.1.02.15.03,1.62,12.6,3.25,25.19,4.87,37.79h.1c.73-10.45,1.46-20.91,2.18-31.36.06,0,.12,0,.18,0,1.99,5.33,3.98,10.66,5.97,15.99.19-.44.21-.83.25-1.22.83-8.36,1.65-16.71,2.49-25.07.04-.42-.02-.75-.31-1.09Z"/>
    </g>
  </g>
  <path class="cls-4" d="M253,127.04c-4.04,5.45-10.88,8.76-16.83,9.87-7.83,1.47-15.44.75-22.59-2.96-9.47-4.91-14.28-14.86-12.89-25.52,1.52-11.63,9.48-17.74,19.33-20,3.52-.81,7.1-.99,10.7-1,5.34-.02,10.68.04,16.01-.11,3.39-.1,4.73-1.7,4.73-5.08,0-5.32-3.15-8.71-8.92-9.59-6.08-.93-11.94.07-17.65,2.16-3.55,1.29-7.05,2.7-10.34,4.57-.79.45-1.08.29-1.46-.46-2.65-5.15-5.34-10.29-8.05-15.4-.37-.7-.32-1.01.38-1.42,8.16-4.73,16.89-7.76,26.22-8.89,7.9-.96,15.75-.59,23.38,1.98,9,3.04,15.46,8.75,18.27,18.16.95,3.18,1.19,6.46,1.19,9.76.01,16.99,0,33.08.03,50.07,0,1.16-.34,1.4-1.42,1.39-6.76-.05-11.98-.08-18.73-.02-1.14,0-1.44-.32-1.39-1.43.09-1.89.02-3.78.02-6.08ZM235.8,103.13c-2.03.02-4.06.13-6,.81-2.88,1.01-5.04,2.77-5.68,5.96-.94,4.67,1.32,8.95,5.86,10.58,5.02,1.8,9.92,1.1,14.63-1.29,4.15-2.11,6.16-5.63,6.44-10.18.15-2.42.03-4.86.03-7.47-1.59,1.13-3.23,1.48-4.94,1.51"/>
  <path class="cls-4" d="M292.98,94.25c0-5.39-.03-10.78.02-16.17,0-.99-.26-1.23-1.16-1.2-1.91.07-3.82,0-5.73.04-.68.01-1-.1-1-.95.03-6.22.03-12.44,0-18.65,0-.85.31-.96.99-.94,2,.04,4-.05,5.99.04.98.04,1.23-.25,1.22-1.29-.04-8.11,0-16.21-.05-24.32,0-1.12.22-1.46,1.33-1.45,6.51.06,13.03.05,19.54,0,.96,0,1.24.22,1.23,1.28-.05,8.15,0,16.3-.05,24.46,0,1,.19,1.35,1.2,1.32,2.99-.08,5.99,0,8.99-.05.81-.01,1.03.26,1.02,1.1-.03,6.13-.03,12.25,0,18.38,0,.85-.23,1.1-1.03,1.08-3.04-.05-6.08.02-9.12-.04-.87-.02-1.07.26-1.06,1.15.03,9.35-.01,18.7.03,28.05.03,6.58-1.22,31.5-7.88,28.81-7.85-3.16-12.03-9.55-13.69-18.05-.81-4.13-.84-8.32-.81-12.51.02-3.36,0-6.72,0-10.09Z"/>
  <path class="cls-4" d="M161.58,110.7c-2.69,1.91-5.92,2.68-9.47,2.69-7.6.03-13.37-4.69-14.88-11.99-.2-.95,6.43-2.86,46.19-18.1-2.79-7.82-7.44-14.14-14.94-18.05-7.32-3.82-15.15-4.85-23.24-3.51-9.31,1.55-16.86,6.07-22.1,14.06-4.43,6.74-6.1,14.21-5.5,22.21.83,10.92,5.59,19.69,14.95,25.5,11.31,7.03,23.31,7.14,35.45,2.33,6.49-2.57,11.61-7,14.95-12.85l-21.42-2.3ZM146.86,75.64c12.78-4.31,18.99,6.8,18.99,6.8l-28.42,10.92s-3.73-13.27,9.44-17.71Z"/>
</svg>