<?xml version="1.0" encoding="utf-8"?>
<!-- Generator: Adobe Illustrator 28.1.0, SVG Export Plug-In . SVG Version: 6.00 Build 0)  -->
<svg version="1.0" id="Layer_1" xmlns="http://www.w3.org/2000/svg" xmlns:xlink="http://www.w3.org/1999/xlink" x="0px" y="0px"
	 viewBox="0 0 347.1 153.6" style="enable-background:new 0 0 347.1 153.6;" xml:space="preserve">
<style type="text/css">
	.st0{fill:#FDFDFD;}
	.st1{fill:#1E1E1E;}
	.st2{clip-path:url(#SVGID_00000026866846120430013520000001931292219136306572_);}
	.st3{fill:#D62C27;}
</style>
<g>
	<circle class="st0" cx="152.3" cy="96" r="38.7"/>
	<path class="st1" d="M63.4,153.6c-3.3,0-6.5-0.3-9.7-0.9c-4.2-0.8-8.6-1.2-13.7-1.2h-0.4c-5.2,0-10.5,0-15.7,0H3.6
		c-0.3,0-0.6,0-0.9,0H2.2H2.1c-0.5,0-1-0.2-1.4-0.5c-0.4-0.4-0.6-0.9-0.6-1.5V17.3C0,7.8,7.8,0,17.3,0h2.5c9.5,0,18.9,0,28.4,0
		C49,0,50,0.1,50.8,0.9c0.9,0.9,0.8,2.1,0.8,2.6c0,3,0,6.1,0,9.1V16v6.1c0,6.5,0,13,0,19.5c3.7-0.8,7.5-1.2,11.3-1.2
		c1.5,0,3,0.1,4.5,0.2c11.8,1,22.3,5.5,31.3,13.4c2.9,2.6,5.5,5.5,7.9,9c5.1-6.9,11.7-12.5,19-16.2c8.3-4.2,17.3-6.3,26.6-6.3
		c2.7,0,5.4,0.2,8.2,0.5c12.2,1.5,22.6,6.2,31,14c0.4,0.3,0.6,0.7,0.9,1c0.1,0.1,0.1,0.2,0.2,0.2c0.2-0.1,0.5-0.3,0.6-0.5
		c0.3-0.2,0.5-0.4,0.8-0.6c13.3-8.8,27.6-13.8,42.6-14.6c1.5-0.1,3-0.1,4.5-0.1c9.1,0,17.3,1.6,25,5c1.6,0.7,3.2,1.5,5.1,2.7
		c0-1.5,0-3,0-4.5c0-0.4,0-1.5,0.8-2.3s1.9-0.8,2.2-0.8h0.2c0.6,0,1.2,0,1.7,0h2.7c0.5,0,1,0,1.5,0c0-3.6,0-7.2,0-10.8
		c0-4.5,0-9.1,0-13.6c0-0.6,0-1.8,0.9-2.7c0.8-0.8,1.8-0.9,2.6-0.9c7.7,0,14.5,0,21.4,0s13.5,0,21,0l0,0c0.9,0,2.1,0,3.1,0.9
		c0.6,0.6,0.9,1.4,0.9,2.4c-0.9,15.8,1.4,21.7,3.5,23.9c0.9,1,2,1.4,3.4,1.4c1,0,2-0.2,2.8-0.4c0.7-0.2,1.3-0.3,1.9-0.3h0.1
		c0.4,0,1.5,0,2.3,0.8s0.8,1.7,0.8,2.4c0,11.2-0.1,20.5-0.2,27.6c-0.1,5.1-0.2,9.1-0.3,11.9c-0.2,4.8-0.3,6.8-2.5,6.8
		c-1.1,0-2.1,0-3.1,0h-3.3c-0.9,0-1.8,0-2.6,0c0.9,1.9,4.5,5.2,6.8,7.4c5,4.7,7.8,7.4,7.3,10.2c-2.3,12.9-2.3,25.6,0.1,37.9
		c0.3,1.3,0.5,2.9-0.4,4c-0.8,1-1.9,1.2-2.4,1.2l-1,0.1c-1.9,0.2-3.8,0.4-5.6,0.7c-5.2,0.7-9.5,1.1-13.5,1.1c-3.2,0-6.2-0.2-9-0.7
		c-9.3-1.4-16.7-4.8-22.6-10.3c-0.6-0.6-1.2-1.2-1.7-1.8c0,2.8,0,5.4,0,8.1c0,0.8,0,1.9-0.9,2.7c-0.9,0.9-2.2,0.9-2.8,0.9
		c-7.1,0-14.3,0-21.4,0c-5.6,0-19.4,0-19.4,0c-0.5,0-1.1,0-1.4,0.1c-4.6,1.3-9.3,2-14,2c-2.5,0-5.1-0.2-7.7-0.6
		c-4.4-0.7-10.7-2.3-16.9-3.9c-7.8-2.1-15.9-4.2-19.7-4.2c-0.9,0-1.1,0.1-1.1,0.1c-9.6,5.6-20.4,8.5-32,8.5c-1.7,0-3.4-0.1-5.1-0.2
		c-11.6-0.8-22.2-4.8-31.4-11.9c-2.6-2-5.9-5.3-8.7-7.9c-0.7-0.7-1.4-1.4-2-2C96.4,145.2,80.2,153.6,63.4,153.6L63.4,153.6z
		 M153,56.6c-2.8,0-5.6,0.3-8.5,0.8c-11.4,2-20.2,7.8-26.1,17c-5,7.8-7.1,16.8-6.2,26.6c1.2,13.4,7.3,23.6,18.1,30.1
		c7.1,4.3,14.7,6.5,22.6,6.5c6.4,0,13.1-1.4,20-4.3c7.9-3.3,13-8.3,17.2-16.8c-0.9-0.1-9.2-1.9-19.3-3.9c-3.9,5.3-9.7,9.1-17.2,9.2
		h-0.4c-10.2,0-18.2-6.4-20.4-16.3c-0.5-2.2,1.8-3.1,4.6-4.3c2.8-1.2,7.4-3,15.1-6c8.1-3.2,20.3-7.9,37.2-14.6
		c-3.8-9.1-9.4-15.5-17.3-19.4C166.3,58.1,159.8,56.6,153,56.6L153,56.6z M232.2,91.3c-3.1,0-6.8,0.1-10.4,0.9
		c-7.3,1.7-16.4,6.2-18,18.3c-1.3,10,3.3,19,12,23.5c4.5,2.3,9.3,3.4,14.5,3.4l0,0c2.3,0,4.7-0.2,7.1-0.7c6.5-1.2,10.9-3.7,14.2-8.2
		c0.4-0.5,1-0.8,1.6-0.8c0.2,0,0.4,0,0.6,0.1c0.8,0.3,1.4,1,1.4,1.9c0,0.7,0,1.4,0,2c0,1.2,0,2.4,0,3.5c3.2,0,6.4,0,9.6,0
		s6.5,0,9.7,0c0-11.3,0-22.6,0-33.8V85c0-3.8-0.4-6.6-1.1-9.2c-2.5-8.3-8.1-13.8-17.2-16.8c-4.8-1.6-9.7-2.4-15.2-2.4
		c-2.4,0-5,0.2-7.6,0.5c-8.7,1-17.1,3.8-25,8.2c2.4,4.5,4.9,9.1,7.3,13.8c3.4-1.8,6.9-3.2,9.9-4.2c4.9-1.8,9.4-2.6,13.9-2.6
		c1.7,0,3.3,0.1,5,0.4c6.8,1,10.7,5.2,10.7,11.6c0,4.6-2.3,6.9-6.7,7.1c-3.6,0.1-7.3,0.1-10.4,0.1h-3.3L232.2,91.3L232.2,91.3z
		 M37.4,125.3c0.6,0,1.2,0.3,1.6,0.8l0.6,0.8c0.3,0.5,0.6,0.8,0.9,1.2c0.4,0.4,0.9,1,1.4,1.5c5.1,4.8,11.4,7.4,18.6,7.7
		c0.7,0,1.4,0,2.1,0c13.2,0,23.7-5.4,31-16.2c6.5-9.6,8.6-20.8,6.1-33.5c-3.6-18.4-18.1-30.9-36.1-31h-0.4C56,56.6,50,58.3,45,61.7
		c-2.6,1.8-4.7,3.8-6.2,6.1c-0.4,0.6-1,0.9-1.7,0.9c-0.2,0-0.4,0-0.6-0.1c-0.8-0.2-1.4-1-1.4-1.9v-2c0-1.4,0-2.8,0-4.2
		c0.2-9,0.2-18.2,0.1-27c0-5.7,0-11.6,0-17.4c-3.3,0-6.6,0-9.9,0s-6.3,0-9.5,0c0,24.1,0,48.2,0,72.4v20.6c0,8.8,0,17.5,0,26.2
		c3.2,0,6.4,0,9.5,0s6.5,0,9.8,0c0-1.7,0-3.5,0-5.4c0-0.9,0-1.8,0-2.7c0-0.9,0.5-1.6,1.4-1.9C37,125.3,37.2,125.3,37.4,125.3
		L37.4,125.3z M292.7,73.9c0.4,0,1.5,0,2.3,0.8s0.8,1.8,0.8,2.4c0,4.2,0,8.4,0,12.4V97c0,2.4,0,4.8,0,7.2c0,4.3,0,8.5,0.9,12.6
		c1.8,8.8,6.3,14.4,13.8,17.2c4.1,1.5,8.5,2.3,13.5,2.3l0,0c2.2,0,4.5-0.1,7-0.4v-3.3c0-4.5,0-9.1,0-13.6c-0.5,0-1,0-1.5-0.1
		c-0.2,0-0.5,0-0.7-0.1c-7.9-0.4-12.3-5-12.3-12.8c0-5.2,0-10.4,0-15.6c0-4.5,0-9,0-13.5c0-0.4,0-1.5,0.8-2.4
		c0.8-0.8,1.9-0.8,2.3-0.8h0.1c1.2,0,2.4,0,3.6,0h3.1c0.8,0,1.6,0,2.3,0c0-5.8,0-11.6,0-17.3c-0.6,0-1.2,0-1.8,0h-3.5
		c-1.2,0-2.5,0-3.7,0h-0.2c-0.4,0-1.5,0-2.4-0.8c-0.9-0.9-0.9-2-0.9-2.5c0-4,0-8.1,0-12.1c0-4.2,0-8.4,0-12.5c-3.4,0-6.9,0-10.3,0
		s-6.7,0-10,0c0,4.1,0,8.3,0,12.4s0,8.2,0,12.3c0,0.8-0.1,1.8-0.9,2.5c-0.8,0.8-1.9,0.8-2.3,0.8c-0.1,0-0.2,0-0.3,0
		c-0.8,0-1.5,0-2.3,0c0,0-3.1,0-3.3,0c0,5.7,0,11.5,0,17.3c0.2,0,3.1,0,3.1,0c0.7,0,1.5,0,2.2,0L292.7,73.9L292.7,73.9z"/>
	<path class="st0" d="M37.4,127.3c0,3.2,0,6,0,8.8c0,1-0.3,1.2-1.3,1.2c-6.9,0-13.8-0.1-20.7,0c-1.1,0-1.4-0.3-1.4-1.4
		c0-11.4,0-22.8,0-34.2c0-28.7,0-57.3,0-85.9c0-1.3,0.2-1.7,1.6-1.7c6.8,0.1,13.6,0.1,20.4,0c1,0,1.4,0.2,1.4,1.3
		c-0.1,15,0.1,30.1-0.2,45.1c0,2,0,4,0,6.2C39,64,41.3,61.8,44,60c5.9-4.1,12.6-5.5,19.7-5.4c17.5,0.1,34,12,38,32.6
		c2.4,12.4,0.9,24.4-6.4,35.1c-8.3,12.2-20.2,17.6-34.9,17c-7.6-0.3-14.3-3-19.9-8.3c-0.6-0.5-1.1-1.1-1.6-1.7
		C38.6,128.8,38.1,128.2,37.4,127.3L37.4,127.3z"/>
	<path class="st0" d="M253.1,129.8c-4.1,5.4-9.5,7.8-15.5,8.9c-7.9,1.5-15.6,0.8-22.9-3c-9.6-4.9-14.4-14.9-13-25.5
		c1.5-11.6,9.6-17.7,19.6-20c3.6-0.8,7.2-1,10.8-1c5.4,0,10.8,0,16.2-0.1c3.4-0.1,4.8-1.7,4.8-5.1c0-5.3-3.2-8.7-9-9.6
		c-6.1-0.9-12.1,0.1-17.9,2.2c-3.6,1.3-7.1,2.7-10.5,4.6c-0.8,0.4-1.1,0.3-1.5-0.5c-2.7-5.2-5.4-10.3-8.1-15.4
		c-0.4-0.7-0.3-1,0.4-1.4c8.2-4.7,17.1-7.8,26.5-8.9c8-1,15.9-0.6,23.6,2c9.1,3,15.6,8.8,18.5,18.2c1,3.2,1.2,6.5,1.2,9.8
		c0,17,0,34,0,51c0,1.2-0.4,1.4-1.4,1.4c-6.8-0.1-13.7-0.1-20.5,0c-1.2,0-1.4-0.3-1.4-1.4C253.2,134,253.1,132.1,253.1,129.8
		L253.1,129.8z"/>
	<path class="st0" d="M293.8,93.9c0-5.6,0-11.2,0-16.8c0-1-0.3-1.3-1.3-1.2c-2.1,0.1-4.2,0-6.3,0c-0.8,0-1.1-0.1-1.1-1
		c0-6.4,0-12.9,0-19.3c0-0.9,0.3-1,1.1-1c2.2,0,4.4,0,6.6,0c1.1,0,1.4-0.3,1.4-1.3c0-8.4,0-16.8-0.1-25.2c0-1.2,0.2-1.5,1.5-1.5
		c7.2,0.1,14.3,0,21.5,0c1.1,0,1.4,0.2,1.4,1.3c0,8.4,0,16.9,0,25.4c0,1,0.2,1.4,1.3,1.4c3.3-0.1,6.6,0,9.9,0c0.9,0,1.1,0.3,1.1,1.1
		c0,6.3,0,12.7,0,19.1c0,0.9-0.2,1.1-1.1,1.1c-3.4-0.1-6.7,0-10,0c-1,0-1.2,0.3-1.2,1.2c0,9.7,0,19.4,0,29.1
		c0,6.8,3.6,10.5,10.4,10.8c1.1,0.1,2.2,0.3,3.3,0c0.6-0.1,0.8,0.1,0.8,0.7c0,6.4,0,12.8,0,19.2c0,0.4,0,0.8-0.6,0.9
		c-7.7,1-15.3,0.9-22.6-1.8c-8.6-3.3-13.2-9.9-15.1-18.7c-0.9-4.3-0.9-8.6-0.9-13C293.8,100.9,293.8,97.4,293.8,93.9L293.8,93.9z"/>
	<g>
		<g>
			<defs>
				<ellipse id="SVGID_1_" cx="63.6" cy="97.1" rx="36" ry="39"/>
			</defs>
			<clipPath id="SVGID_00000033353261131248647530000013210488827026705034_">
				<use xlink:href="#SVGID_1_"  style="overflow:visible;"/>
			</clipPath>
			<g style="clip-path:url(#SVGID_00000033353261131248647530000013210488827026705034_);">
				<g>
					<path class="st3" d="M40,93.5c-0.8,4.1-1.4,8.2-1.6,12.4c0.4-0.3,0.7-0.6,1-0.9c0.7,2.1,1.3,4,1.5,6.1c0.1,1.1-0.2,1.9-1.1,2.5
						c-0.4,0.3-0.8,0.6-1.2,1c-1.9,1.6-2.1,2.5-1.1,4.8c0.5,1.2,1,2.5,1.4,3.7c0.1,0.5,0.3,1,0,1.5c-0.6,1-0.5,2.2-0.3,3.2
						c0.8,4.4,2.4,8.5,4.6,12.4c0.1,0.1,0.1,0.4,0.4,0.4c-1.1-15.7-2.2-31.3-3.3-47L40,93.5L40,93.5z"/>
					<path class="st3" d="M37.2,103.1c0.3-2.7,0.5-5.4,0.8-8.2c-1.7,1.5-3.2,2.9-4.7,4.3c-0.2,0.2-0.3,0.4-0.3,0.7
						c0.3,2.2,0.6,4.3,0.9,6.6c1.1-1,2.1-1.9,3.1-2.9C37.1,103.5,37.2,103.3,37.2,103.1z"/>
					<path class="st3" d="M28.7,102.7c-0.3,0.3-0.6,0.7-0.4,1.1c0.3,0.5,0,0.7-0.3,1c-0.9,0.9-1.8,1.8-2.8,2.8
						c-0.2,0.2-0.5,0.4-0.4,0.8c0.1,1.1,0.1,2.1,0.2,3.2c0.1,0,0.1,0,0.2,0c2-1.4,3.5-3.4,5.3-5c0.1-0.1,0.1-0.3,0.1-0.4
						c0.3-2,0.5-4,0.9-6.2C30.4,100.9,29.5,101.8,28.7,102.7L28.7,102.7z"/>
					<path class="st3" d="M102,99.9c-1.5-1.8-2.9-3.6-4.6-5.3c-1.4-1.4-2.6-2.8-2.4-5c0.1-0.7-0.5-1.3-1.2-1.5
						c-2.6-0.6-4.7-2-6.9-3.3c-1.8-1.2-3.2-2.8-4.4-4.5c-0.4-0.6-0.6-1.3-0.7-2c-0.1-1.1-0.1-2.2-0.2-3.2c-0.1-1.5-0.1-3-0.1-4.4
						c-3.4-0.4-7.5-0.5-12.5-0.1c0,0-1.4-0.1-1.1-0.7c0,0,5.4-2,13.5-0.6c0-0.5-0.1-1-0.1-1.5c-4.2-1.5-10.6-2.7-20.1-1.8
						c0,0-1.4-0.1-1.1-0.7c0,0,9-3.3,21,1.6c-0.1-0.5-0.2-1.1-0.4-1.6c-1.9-0.9-9.6-5.5-26.9-1.4c0,0-1.4,0.1-1.2-0.5
						c0,0,11.6-6.2,27.8,1.1c0-0.1,0-0.1-0.1-0.2c-0.1-0.2-0.1-0.3-0.1-0.5c0-0.3-0.1-0.6,0.2-0.8c0.3-0.2,0.6,0.1,0.8,0.2
						c0.1,0.1,0.2,0.1,0.3,0.2c-0.1-1.5-0.1-2.9,0-4.3c0.2-2.3-0.7-3.7-2.9-4.3c-0.9-0.3-32.6-2.4-33.8,12.9
						c-0.1,1.1,1.3,1.3,1.1,2.4c-0.2,0.9-0.4,1.9-0.6,2.8c-0.4,2-0.5,3.8,1.2,5.3c0.3,0.2,0.1,0.5,0,0.8c-0.4,1.8-0.9,3.6-1.3,5.4
						c-0.2,1-0.3,1.9,0.7,2.5c-0.8,0.8-1.6,1.6-2.9,1c-0.3-0.1-0.7,0-1.1,0c-0.8,0-1,0.4-0.9,1.1c0.5,6.7,1,13.5,1.5,20.2
						c0.7,10.1,1.4,20.1,2.1,30.1c0.1,1.4,0.2,2.7,0.3,4.1c0,0.7,0.6,0.7,0.9,0.8c0.5,0.1,0.3-0.4,0.3-0.6c0.2-1.8,0.4-3.6,0.5-5.4
						c0.6-6.1,1.2-12.1,1.8-18.2c0.2-2.3,0.5-4.6,0.7-7h0.2c1.7,6.3,3.4,12.7,5.1,19c0,0,0.1,0,0.2,0c0.7-6.1,1.4-12.2,2.2-18.4
						c-0.8,0.3-1.4,0.5-2,0.8c-0.7,0.3-1.1,0.1-1.4-0.4c-0.2-0.3-0.3-0.7-0.3-1.1c-0.2-2-0.1-4,0-6c0.1-1.1,0-2.2-0.6-3.1
						c-0.2-0.4-0.3-0.9,0-1c2.5-0.8,1.2-5.5,1.6-7.1c0.5,0.4,1.2,3.6,1.5,4c1.3,1.3,2.6,1.5,4.3,0.5c2.2-1.3,4.6-2.3,6.9-3.5
						c0.6-0.3,1-0.2,1.3,0.4c0.5,0.8,0.9,1.7,1.3,2.5c0.3,0.6,0.2,1-0.3,1.5c-1.7,1.5-3.3,3-4.7,4.8c-0.8,0.9-1.4,2-1.7,3.2
						c-0.2,1-0.7,1.9-1.6,2.4c-0.5,0.3-0.5,0.6-0.4,1.1c0.8,5.7,1.7,11.3,2.5,17c0.7,4.9,1.4,9.9,2.2,14.8c0,0.2-0.1,0.6,0.2,0.6
						c0.4,0,0.2-0.4,0.3-0.7c0.1-1,0.2-1.9,0.2-2.9c0.6-6.7,1.2-13.4,1.8-20.2c0.2-2,0.4-4,0.6-6.1c0.1,0,0.1,0,0.2,0
						c1.8,5.6,3.6,11.2,5.4,16.8c0.1,0,0.1,0,0.2,0c1.4-12.3,2.9-24.6,4.3-36.9c0.1,0,0.1,0,0.2,0c1.1,8.4,2.2,16.9,3.4,25.3h0.1
						c1.2-5.2,2.5-10.4,3.8-15.6c0.1,0,0.1,0,0.2,0c1.6,12.6,3.2,25.2,4.9,37.8h0.1c0.7-10.4,1.5-20.9,2.2-31.4c0.1,0,0.1,0,0.2,0
						c2,5.3,4,10.7,6,16c0.2-0.4,0.2-0.8,0.2-1.2c0.8-8.4,1.7-16.7,2.5-25.1C102.4,100.6,102.3,100.2,102,99.9L102,99.9z"/>
				</g>
			</g>
		</g>
	</g>
	<path class="st3" d="M253,127c-4,5.5-10.9,8.8-16.8,9.9c-7.8,1.5-15.4,0.8-22.6-3c-9.5-4.9-14.3-14.9-12.9-25.5
		c1.5-11.6,9.5-17.7,19.3-20c3.5-0.8,7.1-1,10.7-1c5.3,0,10.7,0,16-0.1c3.4-0.1,4.7-1.7,4.7-5.1c0-5.3-3.1-8.7-8.9-9.6
		c-6.1-0.9-11.9,0.1-17.6,2.2c-3.6,1.3-7.1,2.7-10.3,4.6c-0.8,0.4-1.1,0.3-1.5-0.5c-2.6-5.2-5.3-10.3-8.1-15.4
		c-0.4-0.7-0.3-1,0.4-1.4c8.2-4.7,16.9-7.8,26.2-8.9c7.9-1,15.8-0.6,23.4,2c9,3,15.5,8.8,18.3,18.2c1,3.2,1.2,6.5,1.2,9.8
		c0,17,0,33.1,0,50.1c0,1.2-0.3,1.4-1.4,1.4c-6.8-0.1-12-0.1-18.7,0c-1.1,0-1.4-0.3-1.4-1.4C253.1,131.2,253,129.3,253,127L253,127z
		 M235.8,103.1c-2,0-4.1,0.1-6,0.8c-2.9,1-5,2.8-5.7,6c-0.9,4.7,1.3,8.9,5.9,10.6c5,1.8,9.9,1.1,14.6-1.3c4.1-2.1,6.2-5.6,6.4-10.2
		c0.1-2.4,0-4.9,0-7.5c-1.6,1.1-3.2,1.5-4.9,1.5"/>
	<path class="st3" d="M293,94.2c0-5.4,0-10.8,0-16.2c0-1-0.3-1.2-1.2-1.2c-1.9,0.1-3.8,0-5.7,0c-0.7,0-1-0.1-1-0.9
		c0-6.2,0-12.4,0-18.7c0-0.8,0.3-1,1-0.9c2,0,4,0,6,0c1,0,1.2-0.2,1.2-1.3c0-8.1,0-16.2,0-24.3c0-1.1,0.2-1.5,1.3-1.5
		c6.5,0.1,13,0,19.5,0c1,0,1.2,0.2,1.2,1.3c0,8.1,0,16.3,0,24.5c0,1,0.2,1.3,1.2,1.3c3-0.1,6,0,9,0c0.8,0,1,0.3,1,1.1
		c0,6.1,0,12.2,0,18.4c0,0.8-0.2,1.1-1,1.1c-3-0.1-6.1,0-9.1,0c-0.9,0-1.1,0.3-1.1,1.2c0,9.3,0,18.7,0,28.1c0,6.6-1.2,31.5-7.9,28.8
		c-7.9-3.2-12-9.6-13.7-18.1c-0.8-4.1-0.8-8.3-0.8-12.5C293,101,293,97.6,293,94.2L293,94.2z"/>
	<path class="st3" d="M152.1,113.4c-7.6,0-13.7-3.9-15.2-11.2c-0.2-0.9,6.7-3.7,46.5-18.9c-2.8-7.8-7.4-14.1-14.9-18.1
		c-7.3-3.8-15.1-4.8-23.2-3.5c-9.3,1.5-16.9,6.1-22.1,14.1c-4.4,6.7-6.1,14.2-5.5,22.2c0.8,10.9,5.6,19.7,15,25.5
		c11.3,7,23.3,7.1,35.4,2.3c6.5-2.6,10.4-5.1,13.7-10.9l-20.2-4.2C161.6,110.7,155.7,113.4,152.1,113.4z M146.9,75.6
		c12.8-4.3,19,6.8,19,6.8l-28.4,10.9C137.4,93.4,133.7,80.1,146.9,75.6L146.9,75.6z"/>
</g>
</svg>
